<svg width="81" height="40" viewBox="0 0 81 40" fill="none" xmlns="http://www.w3.org/2000/svg">
<path d="M1.16309 26.1988H0.281057C0.0936277 26.1988 0 26.1055 0 25.9177V13.5855C0 13.3985 0.0936277 13.3044 0.281057 13.3044H1.10303C1.26331 13.3044 1.37034 13.3581 1.4238 13.4649L6.95849 23.1909H7.03852V13.5855C7.03852 13.3985 7.13218 13.3044 7.31959 13.3044H8.20194C8.3887 13.3044 8.48249 13.3985 8.48249 13.5855V25.9177C8.48249 26.1055 8.3887 26.1988 8.20194 26.1988H7.45972C7.3123 26.1988 7.17221 26.1118 7.03852 25.9377L1.52419 16.3123H1.44399V25.9177C1.44399 26.1055 1.35015 26.1988 1.16309 26.1988Z" fill="white"/>
<path d="M11.1777 25.9177V16.2521C11.1777 16.065 11.2644 15.9717 11.4381 15.9717H12.3605C12.5476 15.9717 12.6416 16.065 12.6416 16.2521V25.9177C12.6416 26.1055 12.5476 26.1988 12.3605 26.1988H11.4583C11.2708 26.1988 11.1777 26.1055 11.1777 25.9177ZM11.1777 14.9065V13.5848C11.1777 13.3978 11.2644 13.3044 11.4381 13.3044H12.3605C12.5476 13.3044 12.6416 13.3978 12.6416 13.5848V14.9065C12.6416 15.0936 12.5476 15.1867 12.3605 15.1867H11.4381C11.2644 15.1867 11.1777 15.0936 11.1777 14.9065Z" fill="white"/>
<path d="M16.319 26.1988H15.4165C15.2291 26.1988 15.1357 26.1055 15.1357 25.9177V16.2521C15.1357 16.0651 15.2291 15.9718 15.4165 15.9718H16.319C16.5061 15.9718 16.5997 16.0651 16.5997 16.2521V17.0348H16.68C17.0542 16.3261 17.7626 15.9718 18.8055 15.9718H19.5476C20.7235 15.9718 21.5394 16.4262 21.9938 17.335C22.2077 16.8943 22.5456 16.5564 23.0068 16.3227C23.468 16.0889 23.9521 15.9718 24.4606 15.9718H25.1625C26.0711 15.9718 26.7798 16.2323 27.288 16.7537C27.7958 17.2753 28.0499 18.0038 28.0499 18.9393V25.9177C28.0499 26.1055 27.9564 26.1988 27.7693 26.1988H26.8668C26.6794 26.1988 26.5861 26.1055 26.5861 25.9177V18.9997C26.5861 17.8366 26.0245 17.2548 24.9016 17.2548H24.2399C23.6383 17.2548 23.1737 17.4254 22.8463 17.7667C22.5185 18.1073 22.3551 18.5719 22.3551 19.1599V25.9177C22.3551 26.1055 22.2611 26.1988 22.074 26.1988H21.1718C20.9844 26.1988 20.8911 26.1055 20.8911 25.9177V18.9997C20.8911 17.8366 20.3295 17.2548 19.2066 17.2548H18.4647C17.8631 17.2548 17.4019 17.4157 17.0811 17.7365C16.76 18.0573 16.5997 18.5116 16.5997 19.0995V25.9177C16.5997 26.1055 16.5061 26.1988 16.319 26.1988Z" fill="white"/>
<path d="M32.582 24.9556H35.8704C37.0201 24.9556 37.5951 24.3876 37.5951 23.2504V21.9471C37.5951 20.8114 36.9801 20.2427 35.7502 20.2427H32.582C32.448 20.2427 32.3812 20.3029 32.3812 20.4236V24.7548C32.3812 24.8884 32.448 24.9556 32.582 24.9556ZM32.582 19.0194H35.6701C36.8461 19.0194 37.4348 18.4512 37.4348 17.3149V16.2521C37.4348 15.1165 36.8663 14.5476 35.73 14.5476H32.582C32.448 14.5476 32.3812 14.6147 32.3812 14.7484V18.8391C32.3812 18.9597 32.448 19.0194 32.582 19.0194ZM30.9174 25.9177V13.5855C30.9174 13.3984 31.011 13.3044 31.1984 13.3044H35.9106C36.833 13.3044 37.5551 13.5621 38.0761 14.0769C38.5977 14.5915 38.8584 15.3097 38.8584 16.2322V17.3349C38.8584 18.5253 38.2968 19.2935 37.1739 19.6409C37.6818 19.6815 38.1163 19.9055 38.4775 20.3133C38.8383 20.721 39.0189 21.2591 39.0189 21.9272V23.2711C39.0189 24.1935 38.7546 24.9117 38.2266 25.4265C37.6986 25.9411 36.9735 26.1988 36.051 26.1988H31.1984C31.011 26.1988 30.9174 26.1054 30.9174 25.9177Z" fill="white"/>
<path d="M41.3743 25.9177V16.2521C41.3743 16.065 41.4611 15.9717 41.6348 15.9717H42.5571C42.7443 15.9717 42.838 16.065 42.838 16.2521V25.9177C42.838 26.1054 42.7443 26.1988 42.5571 26.1988H41.6548C41.4676 26.1988 41.3743 26.1054 41.3743 25.9177ZM41.3743 14.4397V13.5848C41.3743 13.3977 41.4611 13.3044 41.6348 13.3044H42.5571C42.7443 13.3044 42.838 13.3977 42.838 13.5848V14.4397C42.838 14.6268 42.7443 14.7199 42.5571 14.7199H41.6348C41.4611 14.7199 41.3743 14.6268 41.3743 14.4397Z" fill="white"/>
<path d="M45.9669 17.2547H44.864C44.6764 17.2547 44.5835 17.1683 44.5835 16.9941V16.252C44.5835 16.065 44.6764 15.9717 44.864 15.9717H45.9669C46.1003 15.9717 46.1676 15.9115 46.1676 15.7909V14.0665C46.1676 13.8794 46.2609 13.7856 46.4481 13.7856H47.3508C47.5241 13.7856 47.6114 13.8794 47.6114 14.0665V15.7909C47.6114 15.9115 47.6847 15.9717 47.8319 15.9717H49.4863C49.687 15.9717 49.7873 16.065 49.7873 16.252V16.9941C49.7873 17.1683 49.687 17.2547 49.4863 17.2547H47.8319C47.6847 17.2547 47.6114 17.3149 47.6114 17.4355V23.2107C47.6114 24.347 48.1993 24.915 49.376 24.915H50.1581C50.3587 24.915 50.459 25.009 50.459 25.1961V25.9377C50.459 26.1117 50.3587 26.1987 50.1581 26.1987H49.1954C48.2731 26.1987 47.538 25.9411 46.99 25.4265C46.4411 24.9116 46.1676 24.1935 46.1676 23.2711V17.4355C46.1676 17.3149 46.1003 17.2547 45.9669 17.2547Z" fill="white"/>
<path d="M52.5332 27.9415L62.1139 18.3611C62.6806 17.7942 63.5998 17.7942 64.1665 18.3611L73.7473 27.9415C74.3139 28.5084 74.3139 29.4276 73.7473 29.9944L64.1665 39.5749C63.5998 40.1417 62.6806 40.1417 62.1139 39.5749L52.5332 29.9944C51.9665 29.4276 51.9665 28.5084 52.5332 27.9415Z" fill="#33BBC2"/>
<path d="M57.072 18.8331C56.7003 18.8331 56.3291 18.6914 56.0455 18.408L48.0805 10.443C47.5139 9.87611 47.5139 8.95695 48.0805 8.39011L56.0455 0.425272C56.3291 0.141809 56.7003 3.62396e-05 57.072 3.62396e-05C57.4433 3.62396e-05 57.815 0.141809 58.0986 0.425272L66.0631 8.39011C66.6302 8.95695 66.6302 9.87611 66.0631 10.443L58.0986 18.408C57.815 18.6914 57.4433 18.8331 57.072 18.8331Z" fill="#EDF0ED"/>
<path d="M73.0155 22.6389C72.6438 22.6389 72.2725 22.4972 71.9889 22.2138L66.1516 16.3764C65.5845 15.8095 65.5845 14.8903 66.1516 14.3234L71.9889 8.48582C72.2725 8.20236 72.6438 8.06076 73.0155 8.06076C73.3867 8.06076 73.7584 8.20236 74.042 8.48582L79.8793 14.3234C80.4464 14.8903 80.4464 15.8095 79.8793 16.3764L74.042 22.2138C73.7584 22.4972 73.3867 22.6389 73.0155 22.6389Z" fill="#FBBF09"/>
</svg>
